<mxfile host="app.diagrams.net" modified="2023-04-02T17:42:46.208Z" agent="Mozilla/5.0 (Windows NT 10.0; Win64; x64) AppleWebKit/537.36 (KHTML, like Gecko) Chrome/111.0.0.0 Safari/537.36" etag="RhMpr7AsfL4Tgb3bX1iM" version="21.1.2" type="github">
  <diagram name="第 1 页" id="Qb4k8GEXQSuuynJWTsJw">
    <mxGraphModel dx="1434" dy="788" grid="1" gridSize="10" guides="1" tooltips="1" connect="1" arrows="1" fold="1" page="1" pageScale="1" pageWidth="827" pageHeight="1169" math="0" shadow="0">
      <root>
        <mxCell id="0" />
        <mxCell id="1" parent="0" />
        <mxCell id="Vi5Gioc8bYA2O3Cc7jTk-11" value="" style="rounded=1;whiteSpace=wrap;html=1;fillColor=#f5f5f5;fontColor=#333333;strokeColor=#666666;" parent="1" vertex="1">
          <mxGeometry x="80" y="80" width="1030" height="470" as="geometry" />
        </mxCell>
        <mxCell id="Vi5Gioc8bYA2O3Cc7jTk-12" value="" style="endArrow=none;dashed=1;html=1;dashPattern=1 3;strokeWidth=2;rounded=0;entryX=1;entryY=0.5;entryDx=0;entryDy=0;" parent="1" target="Vi5Gioc8bYA2O3Cc7jTk-11" edge="1">
          <mxGeometry width="50" height="50" relative="1" as="geometry">
            <mxPoint x="80" y="310" as="sourcePoint" />
            <mxPoint x="130" y="260" as="targetPoint" />
          </mxGeometry>
        </mxCell>
        <mxCell id="Vi5Gioc8bYA2O3Cc7jTk-17" value="" style="rounded=1;whiteSpace=wrap;html=1;fillColor=#fff2cc;strokeColor=#d6b656;" parent="1" vertex="1">
          <mxGeometry x="425" y="335" width="330" height="190" as="geometry" />
        </mxCell>
        <mxCell id="Vi5Gioc8bYA2O3Cc7jTk-18" value="&lt;b&gt;策略执行点(PEP)&lt;/b&gt;" style="text;html=1;strokeColor=none;fillColor=none;align=center;verticalAlign=middle;whiteSpace=wrap;rounded=0;" parent="1" vertex="1">
          <mxGeometry x="527.5" y="335" width="115" height="30" as="geometry" />
        </mxCell>
        <mxCell id="Vi5Gioc8bYA2O3Cc7jTk-19" value="DIFC传输校验" style="rounded=0;whiteSpace=wrap;html=1;fillColor=#e1d5e7;strokeColor=#9673a6;" parent="1" vertex="1">
          <mxGeometry x="480" y="415" width="210" height="40" as="geometry" />
        </mxCell>
        <mxCell id="Vi5Gioc8bYA2O3Cc7jTk-20" value="DIFC标签计算" style="rounded=0;whiteSpace=wrap;html=1;fillColor=#e1d5e7;strokeColor=#9673a6;" parent="1" vertex="1">
          <mxGeometry x="480" y="465" width="210" height="40" as="geometry" />
        </mxCell>
        <mxCell id="Vi5Gioc8bYA2O3Cc7jTk-22" value="" style="rounded=1;whiteSpace=wrap;html=1;fillColor=#eeeeee;strokeColor=#36393d;" parent="1" vertex="1">
          <mxGeometry x="90" y="380" width="270" height="100" as="geometry" />
        </mxCell>
        <mxCell id="Vi5Gioc8bYA2O3Cc7jTk-23" value="传输进程" style="rounded=0;whiteSpace=wrap;html=1;fillColor=#dae8fc;strokeColor=#6c8ebf;" parent="1" vertex="1">
          <mxGeometry x="120" y="400" width="100" height="60" as="geometry" />
        </mxCell>
        <mxCell id="Vi5Gioc8bYA2O3Cc7jTk-24" value="DIFC&lt;br&gt;数据流控制" style="rounded=0;whiteSpace=wrap;html=1;fillColor=#dae8fc;strokeColor=#6c8ebf;" parent="1" vertex="1">
          <mxGeometry x="260" y="400" width="80" height="60" as="geometry" />
        </mxCell>
        <mxCell id="Vi5Gioc8bYA2O3Cc7jTk-26" value="" style="rounded=1;whiteSpace=wrap;html=1;fillColor=#eeeeee;strokeColor=#36393d;" parent="1" vertex="1">
          <mxGeometry x="825" y="380" width="270" height="100" as="geometry" />
        </mxCell>
        <mxCell id="Vi5Gioc8bYA2O3Cc7jTk-27" value="接收进程" style="rounded=0;whiteSpace=wrap;html=1;fillColor=#dae8fc;strokeColor=#6c8ebf;" parent="1" vertex="1">
          <mxGeometry x="975" y="400" width="100" height="60" as="geometry" />
        </mxCell>
        <mxCell id="Vi5Gioc8bYA2O3Cc7jTk-28" value="DIFC&lt;br&gt;数据流控制" style="rounded=0;whiteSpace=wrap;html=1;fillColor=#dae8fc;strokeColor=#6c8ebf;" parent="1" vertex="1">
          <mxGeometry x="855" y="400" width="80" height="60" as="geometry" />
        </mxCell>
        <mxCell id="Vi5Gioc8bYA2O3Cc7jTk-29" value="" style="rounded=1;whiteSpace=wrap;html=1;fillColor=#ffe6cc;strokeColor=#d79b00;" parent="1" vertex="1">
          <mxGeometry x="366.75" y="90" width="446.5" height="200" as="geometry" />
        </mxCell>
        <mxCell id="Vi5Gioc8bYA2O3Cc7jTk-30" value="PBAC策略管理器" style="rounded=0;whiteSpace=wrap;html=1;fillColor=#d5e8d4;strokeColor=#82b366;" parent="1" vertex="1">
          <mxGeometry x="466" y="130" width="248" height="40" as="geometry" />
        </mxCell>
        <mxCell id="Vi5Gioc8bYA2O3Cc7jTk-31" value="PBAC策略信息库" style="rounded=0;whiteSpace=wrap;html=1;fillColor=#d5e8d4;strokeColor=#82b366;" parent="1" vertex="1">
          <mxGeometry x="466" y="180" width="248" height="40" as="geometry" />
        </mxCell>
        <mxCell id="Vi5Gioc8bYA2O3Cc7jTk-32" value="信任评估引擎" style="rounded=0;whiteSpace=wrap;html=1;fillColor=#d5e8d4;strokeColor=#82b366;" parent="1" vertex="1">
          <mxGeometry x="466" y="230" width="248" height="40" as="geometry" />
        </mxCell>
        <mxCell id="Vi5Gioc8bYA2O3Cc7jTk-33" value="&lt;b&gt;策略决策点(PDP)&lt;/b&gt;" style="text;html=1;strokeColor=none;fillColor=none;align=center;verticalAlign=middle;whiteSpace=wrap;rounded=0;" parent="1" vertex="1">
          <mxGeometry x="541" y="90" width="108" height="30" as="geometry" />
        </mxCell>
        <mxCell id="Vi5Gioc8bYA2O3Cc7jTk-34" value="公钥基础设施" style="rounded=0;whiteSpace=wrap;html=1;fillColor=#dae8fc;strokeColor=#6c8ebf;" parent="1" vertex="1">
          <mxGeometry x="150" y="110" width="120" height="60" as="geometry" />
        </mxCell>
        <mxCell id="Vi5Gioc8bYA2O3Cc7jTk-35" value="威胁情报" style="rounded=0;whiteSpace=wrap;html=1;fillColor=#dae8fc;strokeColor=#6c8ebf;" parent="1" vertex="1">
          <mxGeometry x="150" y="210" width="120" height="60" as="geometry" />
        </mxCell>
        <mxCell id="Vi5Gioc8bYA2O3Cc7jTk-36" value="设备认证" style="rounded=0;whiteSpace=wrap;html=1;fillColor=#dae8fc;strokeColor=#6c8ebf;" parent="1" vertex="1">
          <mxGeometry x="910" y="110" width="120" height="60" as="geometry" />
        </mxCell>
        <mxCell id="Vi5Gioc8bYA2O3Cc7jTk-37" value="活动日志" style="rounded=0;whiteSpace=wrap;html=1;fillColor=#dae8fc;strokeColor=#6c8ebf;" parent="1" vertex="1">
          <mxGeometry x="910" y="210" width="120" height="60" as="geometry" />
        </mxCell>
        <mxCell id="Vi5Gioc8bYA2O3Cc7jTk-38" value="" style="shape=flexArrow;endArrow=classic;html=1;rounded=0;fillColor=#ffe6cc;strokeColor=#d79b00;" parent="1" edge="1">
          <mxGeometry width="50" height="50" relative="1" as="geometry">
            <mxPoint x="290" y="139.5" as="sourcePoint" />
            <mxPoint x="340" y="139.5" as="targetPoint" />
          </mxGeometry>
        </mxCell>
        <mxCell id="Vi5Gioc8bYA2O3Cc7jTk-39" value="" style="shape=flexArrow;endArrow=classic;html=1;rounded=0;fillColor=#ffe6cc;strokeColor=#d79b00;" parent="1" edge="1">
          <mxGeometry width="50" height="50" relative="1" as="geometry">
            <mxPoint x="290" y="239.5" as="sourcePoint" />
            <mxPoint x="340" y="239.5" as="targetPoint" />
          </mxGeometry>
        </mxCell>
        <mxCell id="Vi5Gioc8bYA2O3Cc7jTk-40" value="" style="shape=flexArrow;endArrow=classic;html=1;rounded=0;fillColor=#ffe6cc;strokeColor=#d79b00;" parent="1" edge="1">
          <mxGeometry width="50" height="50" relative="1" as="geometry">
            <mxPoint x="890" y="140" as="sourcePoint" />
            <mxPoint x="840" y="139.5" as="targetPoint" />
          </mxGeometry>
        </mxCell>
        <mxCell id="Vi5Gioc8bYA2O3Cc7jTk-41" value="" style="shape=flexArrow;endArrow=classic;html=1;rounded=0;fillColor=#ffe6cc;strokeColor=#d79b00;" parent="1" edge="1">
          <mxGeometry width="50" height="50" relative="1" as="geometry">
            <mxPoint x="890" y="240" as="sourcePoint" />
            <mxPoint x="840" y="239.5" as="targetPoint" />
          </mxGeometry>
        </mxCell>
        <mxCell id="Vi5Gioc8bYA2O3Cc7jTk-44" value="" style="endArrow=classic;html=1;rounded=0;dashed=1;" parent="1" edge="1">
          <mxGeometry width="50" height="50" relative="1" as="geometry">
            <mxPoint x="511.5" y="330" as="sourcePoint" />
            <mxPoint x="511.5" y="290" as="targetPoint" />
          </mxGeometry>
        </mxCell>
        <mxCell id="Vi5Gioc8bYA2O3Cc7jTk-45" value="" style="endArrow=none;html=1;rounded=0;endFill=0;startArrow=classic;startFill=1;dashed=1;" parent="1" edge="1">
          <mxGeometry width="50" height="50" relative="1" as="geometry">
            <mxPoint x="661.5" y="330" as="sourcePoint" />
            <mxPoint x="661.5" y="290" as="targetPoint" />
          </mxGeometry>
        </mxCell>
        <mxCell id="Vi5Gioc8bYA2O3Cc7jTk-46" value="" style="endArrow=none;html=1;rounded=0;" parent="1" edge="1">
          <mxGeometry width="50" height="50" relative="1" as="geometry">
            <mxPoint x="240" y="480" as="sourcePoint" />
            <mxPoint x="240" y="380" as="targetPoint" />
          </mxGeometry>
        </mxCell>
        <mxCell id="Vi5Gioc8bYA2O3Cc7jTk-47" value="" style="endArrow=none;html=1;rounded=0;" parent="1" edge="1">
          <mxGeometry width="50" height="50" relative="1" as="geometry">
            <mxPoint x="955" y="480" as="sourcePoint" />
            <mxPoint x="954.5" y="380" as="targetPoint" />
          </mxGeometry>
        </mxCell>
        <mxCell id="Vi5Gioc8bYA2O3Cc7jTk-48" value="身份校验" style="rounded=0;whiteSpace=wrap;html=1;fillColor=#e1d5e7;strokeColor=#9673a6;" parent="1" vertex="1">
          <mxGeometry x="480" y="365" width="210" height="40" as="geometry" />
        </mxCell>
        <mxCell id="Vi5Gioc8bYA2O3Cc7jTk-49" value="&lt;b&gt;数据平面&lt;/b&gt;" style="text;html=1;strokeColor=none;fillColor=none;align=center;verticalAlign=middle;whiteSpace=wrap;rounded=0;" parent="1" vertex="1">
          <mxGeometry x="90" y="310" width="60" height="30" as="geometry" />
        </mxCell>
        <mxCell id="Vi5Gioc8bYA2O3Cc7jTk-50" value="&lt;b&gt;控制平面&lt;/b&gt;" style="text;html=1;strokeColor=none;fillColor=none;align=center;verticalAlign=middle;whiteSpace=wrap;rounded=0;" parent="1" vertex="1">
          <mxGeometry x="90" y="280" width="60" height="30" as="geometry" />
        </mxCell>
        <mxCell id="Vi5Gioc8bYA2O3Cc7jTk-51" value="" style="shape=singleArrow;whiteSpace=wrap;html=1;fillColor=#ffcc99;strokeColor=#36393d;" parent="1" vertex="1">
          <mxGeometry x="369" y="420" width="45" height="20" as="geometry" />
        </mxCell>
        <mxCell id="Vi5Gioc8bYA2O3Cc7jTk-53" value="" style="shape=singleArrow;whiteSpace=wrap;html=1;fillColor=#ffcc99;strokeColor=#36393d;" parent="1" vertex="1">
          <mxGeometry x="770" y="425" width="45" height="20" as="geometry" />
        </mxCell>
        <mxCell id="_wskHrpKUXCw48Zkjpye-1" value="加密传输组件" style="rounded=0;whiteSpace=wrap;html=1;" vertex="1" parent="1">
          <mxGeometry x="240" y="680" width="120" height="60" as="geometry" />
        </mxCell>
        <mxCell id="_wskHrpKUXCw48Zkjpye-2" value="基础密码服务" style="rounded=0;whiteSpace=wrap;html=1;" vertex="1" parent="1">
          <mxGeometry x="400" y="680" width="120" height="60" as="geometry" />
        </mxCell>
        <mxCell id="_wskHrpKUXCw48Zkjpye-3" value="网络流量感知" style="rounded=0;whiteSpace=wrap;html=1;" vertex="1" parent="1">
          <mxGeometry x="560" y="680" width="120" height="60" as="geometry" />
        </mxCell>
        <mxCell id="_wskHrpKUXCw48Zkjpye-4" value="用户行为感知" style="rounded=0;whiteSpace=wrap;html=1;" vertex="1" parent="1">
          <mxGeometry x="720" y="680" width="120" height="60" as="geometry" />
        </mxCell>
      </root>
    </mxGraphModel>
  </diagram>
</mxfile>
